<?xml version="1.0" encoding="UTF-8" standalone="no"?>
<svg
   xmlns:dc="http://purl.org/dc/elements/1.1/"
   xmlns:cc="http://creativecommons.org/ns#"
   xmlns:rdf="http://www.w3.org/1999/02/22-rdf-syntax-ns#"
   xmlns:svg="http://www.w3.org/2000/svg"
   xmlns="http://www.w3.org/2000/svg"
   version="1.1"
   id="svg4300"
   viewBox="0 0 646.41057 455.65476"
   height="128.5959mm"
   width="182.43143mm">
  <defs
     id="defs4302" />
  <metadata
     id="metadata4305">
    <rdf:RDF>
      <cc:Work
         rdf:about="">
        <dc:format>image/svg+xml</dc:format>
        <dc:type
           rdf:resource="http://purl.org/dc/dcmitype/StillImage" />
        <dc:title></dc:title>
      </cc:Work>
    </rdf:RDF>
  </metadata>
  <g
     transform="translate(-56.441448,-320.93111)"
     id="layer1">
    <path
       id="path3877-7-2-2-0"
       d="m 379.58521,320.93288 c -1.37767,-0.005 -2.75383,2.9e-4 -4.13281,0.0195 l 0,0.002 c -170.9939,1.2208 -312.120921,80.737 -318.767581,181.8418 -6.8581,104.32308 132.068351,192.20252 310.375001,196.27732 l 0.20117,0 c 22.08776,0.4966 43.72644,-0.2763 64.73047,-2.2793 35.00749,28.64721 78.59243,51.35073 117.57813,62.97853 1.63656,0.4881 84.71094,20.51233 84.71094,16.20703 0,-1.186 -6.91219,-6.02661 -7.99219,-6.75391 -20.58271,-13.91469 -42.53677,-33.01327 -57.53906,-51.32617 -10.94663,-13.36231 -20.4135,-28.65433 -25.97266,-44.57423 92.00045,-31.5445 155.42971,-88.96027 159.83203,-155.92577 6.86103,-104.36569 -132.18889,-192.26293 -310.57422,-196.27733 -4.18096,-0.0699 -8.31619,-0.17426 -12.44922,-0.18946 z m -62.7832,77.10743 c 13.12611,0.0759 25.43223,3.31813 36.91992,9.72461 14.44955,8.05824 24.75715,20.54951 30.92188,37.47265 6.40964,17.05973 8.7783,34.27135 7.10351,51.63867 53.39647,-14.85132 91.97249,-15.65259 115.72852,-2.40429 17.38843,9.6972 26.4218,22.44082 27.09961,38.23046 0.92272,15.92622 -5.08824,31.83889 -18.03125,47.73828 -14.38112,17.66597 -33.44699,30.1513 -57.19727,37.45506 -23.75027,7.30377 -45.29879,5.56134 -64.64648,-5.22851 -27.18474,-15.16042 -39.80179,-45.15421 -37.85156,-89.98046 -19.25865,6.5979 -40.19086,10.65822 -62.79493,12.17969 -22.35916,1.65805 -40.15194,-1.20083 -53.37695,-8.57617 -17.38843,-9.6972 -26.66636,-22.57781 -27.83398,-38.64062 -0.74296,-16.14705 5.35777,-32.17093 18.30078,-48.07031 14.56088,-17.88681 33.74903,-30.30169 57.56445,-37.24805 9.74804,-2.91167 19.11273,-4.34296 28.09375,-4.29101 z m -2.6875,12.03906 c -4.87272,-0.0836 -9.77415,0.60803 -14.70508,2.07226 -12.72448,3.82038 -23.85141,11.58145 -33.3789,23.28516 -10.60608,13.02866 -16.75486,27.58001 -18.44532,43.6543 -1.44554,16.21087 4.5672,28.07206 18.03711,35.58398 9.30649,5.19005 23.70986,6.96297 43.21094,5.3164 19.92575,-1.73081 36.36659,-5.08566 49.32031,-10.06249 2.96447,-16.32702 3.07925,-34.40274 0.34571,-54.22852 -2.48864,-19.68919 -9.24284,-32.60779 -20.26368,-38.7539 -7.95949,-4.43887 -15.99989,-6.72786 -24.12109,-6.86719 z m 139.43359,88.75586 c -4.27181,0.0258 -8.86689,0.27143 -13.78711,0.73828 -19.50108,1.64657 -36.03168,5.11068 -49.58984,10.39258 0.0157,1.29304 -0.11724,5.39197 -0.39844,12.29882 -0.10143,6.68602 -0.28382,11.72228 -0.54687,15.10742 l 0.72851,14.85351 c 0.32324,6.60179 0.96625,11.93782 1.92774,16.00586 0.96148,4.06804 2.11058,8.56104 3.44726,13.48047 1.58159,5.05601 3.79093,9.33938 6.63086,12.84961 3.0197,3.2894 6.36741,5.9591 10.04102,8.0078 12.49028,6.9656 25.09779,8.53717 37.82226,4.7168 12.72448,-3.82037 23.84946,-11.58143 33.37696,-23.28515 10.60608,-13.02866 16.63258,-27.6485 18.07812,-43.85937 1.44555,-16.21087 -4.56719,-28.07205 -18.03711,-35.58398 -6.97986,-3.89254 -16.87791,-5.79992 -29.69336,-5.72265 z"
       style="fill:#1a1a1a;fill-opacity:1;fill-rule:nonzero;stroke:none" />
  </g>
</svg>
