<?xml version="1.0" encoding="UTF-8" standalone="no"?>
<svg
   xmlns:dc="http://purl.org/dc/elements/1.1/"
   xmlns:cc="http://creativecommons.org/ns#"
   xmlns:rdf="http://www.w3.org/1999/02/22-rdf-syntax-ns#"
   xmlns:svg="http://www.w3.org/2000/svg"
   xmlns="http://www.w3.org/2000/svg"
   version="1.1"
   id="svg4300"
   viewBox="0 0 626.79862 441.74984"
   height="124.67162mm"
   width="176.8965mm">
  <defs
     id="defs4302" />
  <metadata
     id="metadata4305">
    <rdf:RDF>
      <cc:Work
         rdf:about="">
        <dc:format>image/svg+xml</dc:format>
        <dc:type
           rdf:resource="http://purl.org/dc/dcmitype/StillImage" />
        <dc:title></dc:title>
      </cc:Work>
    </rdf:RDF>
  </metadata>
  <g
     transform="translate(-52.504295,-322.91585)"
     id="layer1">
    <path
       id="path3877-7-2-2-2-4"
       d="M 361.68455,322.92906 C 195.89542,324.11271 59.18452,401.17347 52.74018,499.20081 46.09083,600.34854 180.83551,685.58681 353.71482,689.5368 l 0.23403,0 c 21.41544,0.48006 42.22106,-0.16502 62.58585,-2.10926 33.94191,27.77518 76.35567,49.67113 114.15471,60.94502 1.58674,0.47256 82.04137,19.87895 82.04137,15.70544 0,-1.15064 -6.6882,-5.85822 -7.73533,-6.56331 -19.95621,-13.49192 -41.24249,-31.93894 -55.78813,-49.69363 -10.61344,-12.95635 -19.69128,-27.69492 -25.08122,-43.13033 89.20011,-30.58427 150.67267,-86.26364 154.94099,-151.1909 6.6522,-101.18899 -128.25337,-186.44376 -301.20904,-190.33599 -5.40494,-0.09 -10.82586,-0.30754 -16.17387,-0.23253 z m -115.79554,106.42013 18.75232,0 -5.6257,15.93947 -4.68808,12.89184 -24.1436,65.86788 c -4.6349,12.73207 -6.08288,21.54866 -4.21927,26.25324 1.82362,4.64082 7.43799,6.79734 16.40827,6.79734 6.52341,10e-4 13.16083,-1.24141 20.15874,-3.75047 7.02064,-2.57131 14.47544,-6.63681 22.03397,-11.72019 l -8.20414,22.50278 c -7.5115,2.8856 -14.40005,4.94986 -20.86195,6.32853 -6.46129,1.38017 -12.73027,2.11001 -18.75231,2.11001 -15.49414,0 -25.1512,-3.67696 -29.06609,-11.01661 -3.97766,-7.34041 -2.6881,-19.8152 3.75047,-37.50463 l 34.45737,-94.69919 z m -69.38356,0.93762 54.85052,0 -34.45738,94.69918 c -6.43879,17.69094 -14.35414,30.16348 -23.67479,37.50463 -9.25847,7.33966 -21.54161,11.01661 -37.03583,11.01661 -6.02204,0 -11.88964,-0.72759 -17.34589,-2.11001 -5.45684,-1.37942 -10.76315,-3.44217 -16.17387,-6.32853 l 7.96974,-22.268 c 3.8587,5.08188 8.44649,8.9141 13.59542,11.48542 5.17144,2.50906 11.05637,3.75046 17.5803,3.75046 8.97021,0 16.12871,-2.15726 21.33076,-6.79734 5.28822,-4.70683 10.1327,-13.52041 14.76744,-26.25324 l 28.59728,-78.75971 -35.8638,0 5.8601,-15.93947 z m 188.69516,38.44224 c 28.03929,0 42.21484,23.16961 31.87894,51.56887 -10.33636,28.3985 -41.34421,51.56886 -69.38357,51.56886 -28.03898,-0.002 -42.68409,-23.17036 -32.34774,-51.56886 10.3359,-28.39926 41.81331,-51.56887 69.85237,-51.56887 z m 219.87088,0.70509 c 28.03929,0 42.21491,23.17036 31.87894,51.56886 -10.3362,28.39851 -41.34428,51.56887 -69.38356,51.56887 -12.69847,0 -22.4745,-4.8246 -28.59728,-12.65782 l -25.78443,70.55521 -17.5803,0 37.97344,-103.84056 c 0.47556,-1.87673 0.93799,-3.69496 1.64082,-5.6257 10.33598,-28.3985 41.81331,-51.56886 69.85237,-51.56886 z m -113.6859,0.93761 c 28.03929,0 42.21483,23.17036 31.87893,51.56887 -10.33642,28.3985 -41.34427,51.56886 -69.38356,51.56886 -28.03906,0 -42.68417,-23.17036 -32.34774,-51.56886 10.3359,-28.39851 41.81331,-51.56887 69.85237,-51.56887 z m -112.27948,19.22113 c -17.97769,0 -38.05872,14.31476 -44.53675,32.11296 -6.4772,17.79745 3.11866,32.11371 21.09636,32.11371 17.97754,0 37.82446,-14.31551 44.30234,-32.11371 6.47847,-17.7997 -2.88441,-32.11296 -20.86195,-32.11296 z m 219.87088,0.46505 c -17.97769,0 -37.82424,14.54955 -44.30234,32.34775 -6.47712,17.79594 2.88426,32.11296 20.86195,32.11296 17.97754,0 37.82447,-14.31477 44.30234,-32.11296 6.47855,-17.7997 -2.88433,-32.34775 -20.86195,-32.34775 z m -113.6859,0.93912 c -17.97762,0 -37.82424,14.54955 -44.30234,32.34774 -6.4772,17.79595 2.88433,32.11296 20.86195,32.11296 17.97761,0 37.82439,-14.31476 44.30234,-32.11296 6.47847,-17.79969 -2.88433,-32.34774 -20.86195,-32.34774 z"
       style="fill:#1a1a1a;fill-opacity:1;fill-rule:nonzero;stroke:none" />
  </g>
</svg>
